<svg xmlns="http://www.w3.org/2000/svg" viewBox="0 0 1024 320" preserveAspectRatio="xMidYMid slice"><defs><filter id="glow" x="-50%" y="-50%" width="200%" height="200%"><feGaussianBlur stdDeviation="1.5"/><feMerge><feMergeNode/><feMergeNode in="SourceGraphic"/></feMerge></filter></defs><rect width="1024" height="320" fill="#000"/><g><animateTransform attributeName="transform" type="translate" values="16,-360;16,340" dur="6.73s" begin="-0.85s" repeatCount="indefinite"/><text font-family="Consolas, Menlo, monospace" font-size="18" text-anchor="middle"><tspan x="0" y="20" fill="#00ff41" opacity="0.01">2</tspan><tspan x="0" y="40" fill="#00ff41" opacity="0.03">ｷ</tspan><tspan x="0" y="60" fill="#00ff41" opacity="0.06">0</tspan><tspan x="0" y="80" fill="#00ff41" opacity="0.09">ﾛ</tspan><tspan x="0" y="100" fill="#00ff41" opacity="0.13">ｲ</tspan><tspan x="0" y="120" fill="#00ff41" opacity="0.17">ﾐ</tspan><tspan x="0" y="140" fill="#00ff41" opacity="0.22">ﾍ</tspan><tspan x="0" y="160" fill="#00ff41" opacity="0.27">ﾃ</tspan><tspan x="0" y="180" fill="#00ff41" opacity="0.33">ｹ</tspan><tspan x="0" y="200" fill="#00ff41" opacity="0.39">></tspan><tspan x="0" y="220" fill="#00ff41" opacity="0.45">ﾖ</tspan><tspan x="0" y="240" fill="#00ff41" opacity="0.52">ﾋ</tspan><tspan x="0" y="260" fill="#00ff41" opacity="0.59">+</tspan><tspan x="0" y="280" fill="#00ff41" opacity="0.67">ﾁ</tspan><tspan x="0" y="300" fill="#00ff41" opacity="0.75">ﾒ</tspan><tspan x="0" y="320" fill="#00ff41" opacity="0.83">ｼ</tspan><tspan x="0" y="340" fill="#00ff41" opacity="0.91">ｹ</tspan><tspan x="0" y="360" fill="#d6ffd6" opacity="1.00" filter="url(#glow)">.</tspan></text></g><g><animateTransform attributeName="transform" type="translate" values="48,-360;48,340" dur="9.22s" begin="-1.80s" repeatCount="indefinite"/><text font-family="Consolas, Menlo, monospace" font-size="18" text-anchor="middle"><tspan x="0" y="20" fill="#00ff41" opacity="0.01">ﾋ</tspan><tspan x="0" y="40" fill="#00ff41" opacity="0.03">.</tspan><tspan x="0" y="60" fill="#00ff41" opacity="0.06">ﾘ</tspan><tspan x="0" y="80" fill="#00ff41" opacity="0.09">7</tspan><tspan x="0" y="100" fill="#00ff41" opacity="0.13">ｺ</tspan><tspan x="0" y="120" fill="#00ff41" opacity="0.17">+</tspan><tspan x="0" y="140" fill="#00ff41" opacity="0.22">ﾆ</tspan><tspan x="0" y="160" fill="#00ff41" opacity="0.27">ﾀ</tspan><tspan x="0" y="180" fill="#00ff41" opacity="0.33">ｿ</tspan><tspan x="0" y="200" fill="#00ff41" opacity="0.39">ﾌ</tspan><tspan x="0" y="220" fill="#00ff41" opacity="0.45">1</tspan><tspan x="0" y="240" fill="#00ff41" opacity="0.52">9</tspan><tspan x="0" y="260" fill="#00ff41" opacity="0.59">ﾝ</tspan><tspan x="0" y="280" fill="#00ff41" opacity="0.67">4</tspan><tspan x="0" y="300" fill="#00ff41" opacity="0.75">ﾕ</tspan><tspan x="0" y="320" fill="#00ff41" opacity="0.83">ﾇ</tspan><tspan x="0" y="340" fill="#00ff41" opacity="0.91">ﾜ</tspan><tspan x="0" y="360" fill="#d6ffd6" opacity="1.00" filter="url(#glow)">ｴ</tspan></text></g><g><animateTransform attributeName="transform" type="translate" values="80,-360;80,340" dur="4.70s" begin="-2.84s" repeatCount="indefinite"/><text font-family="Consolas, Menlo, monospace" font-size="18" text-anchor="middle"><tspan x="0" y="20" fill="#00ff41" opacity="0.01">ﾖ</tspan><tspan x="0" y="40" fill="#00ff41" opacity="0.03">ﾕ</tspan><tspan x="0" y="60" fill="#00ff41" opacity="0.06">ﾌ</tspan><tspan x="0" y="80" fill="#00ff41" opacity="0.09">ｶ</tspan><tspan x="0" y="100" fill="#00ff41" opacity="0.13"><</tspan><tspan x="0" y="120" fill="#00ff41" opacity="0.17">ｽ</tspan><tspan x="0" y="140" fill="#00ff41" opacity="0.22">-</tspan><tspan x="0" y="160" fill="#00ff41" opacity="0.27">ﾍ</tspan><tspan x="0" y="180" fill="#00ff41" opacity="0.33">ﾖ</tspan><tspan x="0" y="200" fill="#00ff41" opacity="0.39">ｹ</tspan><tspan x="0" y="220" fill="#00ff41" opacity="0.45">3</tspan><tspan x="0" y="240" fill="#00ff41" opacity="0.52">ｱ</tspan><tspan x="0" y="260" fill="#00ff41" opacity="0.59">ﾑ</tspan><tspan x="0" y="280" fill="#00ff41" opacity="0.67">ﾂ</tspan><tspan x="0" y="300" fill="#00ff41" opacity="0.75">:</tspan><tspan x="0" y="320" fill="#00ff41" opacity="0.83">0</tspan><tspan x="0" y="340" fill="#00ff41" opacity="0.91">ｴ</tspan><tspan x="0" y="360" fill="#d6ffd6" opacity="1.00" filter="url(#glow)"><</tspan></text></g><g><animateTransform attributeName="transform" type="translate" values="112,-360;112,340" dur="9.35s" begin="-2.48s" repeatCount="indefinite"/><text font-family="Consolas, Menlo, monospace" font-size="18" text-anchor="middle"><tspan x="0" y="20" fill="#00ff41" opacity="0.01">.</tspan><tspan x="0" y="40" fill="#00ff41" opacity="0.03">ﾉ</tspan><tspan x="0" y="60" fill="#00ff41" opacity="0.06">2</tspan><tspan x="0" y="80" fill="#00ff41" opacity="0.09">8</tspan><tspan x="0" y="100" fill="#00ff41" opacity="0.13">+</tspan><tspan x="0" y="120" fill="#00ff41" opacity="0.17">ﾚ</tspan><tspan x="0" y="140" fill="#00ff41" opacity="0.22">ﾕ</tspan><tspan x="0" y="160" fill="#00ff41" opacity="0.27">ﾌ</tspan><tspan x="0" y="180" fill="#00ff41" opacity="0.33">ｶ</tspan><tspan x="0" y="200" fill="#00ff41" opacity="0.39">ﾍ</tspan><tspan x="0" y="220" fill="#00ff41" opacity="0.45">ｽ</tspan><tspan x="0" y="240" fill="#00ff41" opacity="0.52">9</tspan><tspan x="0" y="260" fill="#00ff41" opacity="0.59">ﾛ</tspan><tspan x="0" y="280" fill="#00ff41" opacity="0.67">ﾏ</tspan><tspan x="0" y="300" fill="#00ff41" opacity="0.75">ﾌ</tspan><tspan x="0" y="320" fill="#00ff41" opacity="0.83">ﾕ</tspan><tspan x="0" y="340" fill="#00ff41" opacity="0.91">ﾏ</tspan><tspan x="0" y="360" fill="#d6ffd6" opacity="1.00" filter="url(#glow)">1</tspan></text></g><g><animateTransform attributeName="transform" type="translate" values="144,-360;144,340" dur="5.06s" begin="-4.76s" repeatCount="indefinite"/><text font-family="Consolas, Menlo, monospace" font-size="18" text-anchor="middle"><tspan x="0" y="20" fill="#00ff41" opacity="0.01">ﾐ</tspan><tspan x="0" y="40" fill="#00ff41" opacity="0.03">+</tspan><tspan x="0" y="60" fill="#00ff41" opacity="0.06">3</tspan><tspan x="0" y="80" fill="#00ff41" opacity="0.09">ﾐ</tspan><tspan x="0" y="100" fill="#00ff41" opacity="0.13">ﾆ</tspan><tspan x="0" y="120" fill="#00ff41" opacity="0.17">ｸ</tspan><tspan x="0" y="140" fill="#00ff41" opacity="0.22">ﾑ</tspan><tspan x="0" y="160" fill="#00ff41" opacity="0.27">ﾌ</tspan><tspan x="0" y="180" fill="#00ff41" opacity="0.33">ﾛ</tspan><tspan x="0" y="200" fill="#00ff41" opacity="0.39">ﾖ</tspan><tspan x="0" y="220" fill="#00ff41" opacity="0.45">ﾈ</tspan><tspan x="0" y="240" fill="#00ff41" opacity="0.52">3</tspan><tspan x="0" y="260" fill="#00ff41" opacity="0.59">ﾂ</tspan><tspan x="0" y="280" fill="#00ff41" opacity="0.67">7</tspan><tspan x="0" y="300" fill="#00ff41" opacity="0.75">5</tspan><tspan x="0" y="320" fill="#00ff41" opacity="0.83">ﾌ</tspan><tspan x="0" y="340" fill="#00ff41" opacity="0.91">0</tspan><tspan x="0" y="360" fill="#d6ffd6" opacity="1.00" filter="url(#glow)">ﾆ</tspan></text></g><g><animateTransform attributeName="transform" type="translate" values="176,-360;176,340" dur="10.04s" begin="-8.40s" repeatCount="indefinite"/><text font-family="Consolas, Menlo, monospace" font-size="18" text-anchor="middle"><tspan x="0" y="20" fill="#00ff41" opacity="0.01">ﾄ</tspan><tspan x="0" y="40" fill="#00ff41" opacity="0.03">:</tspan><tspan x="0" y="60" fill="#00ff41" opacity="0.06">ﾀ</tspan><tspan x="0" y="80" fill="#00ff41" opacity="0.09">ﾔ</tspan><tspan x="0" y="100" fill="#00ff41" opacity="0.13">-</tspan><tspan x="0" y="120" fill="#00ff41" opacity="0.17">+</tspan><tspan x="0" y="140" fill="#00ff41" opacity="0.22">ｾ</tspan><tspan x="0" y="160" fill="#00ff41" opacity="0.27">ｸ</tspan><tspan x="0" y="180" fill="#00ff41" opacity="0.33">ﾜ</tspan><tspan x="0" y="200" fill="#00ff41" opacity="0.39">7</tspan><tspan x="0" y="220" fill="#00ff41" opacity="0.45">ﾍ</tspan><tspan x="0" y="240" fill="#00ff41" opacity="0.52">ｳ</tspan><tspan x="0" y="260" fill="#00ff41" opacity="0.59">ﾊ</tspan><tspan x="0" y="280" fill="#00ff41" opacity="0.67">ｵ</tspan><tspan x="0" y="300" fill="#00ff41" opacity="0.75">ﾜ</tspan><tspan x="0" y="320" fill="#00ff41" opacity="0.83">:</tspan><tspan x="0" y="340" fill="#00ff41" opacity="0.91">Z</tspan><tspan x="0" y="360" fill="#d6ffd6" opacity="1.00" filter="url(#glow)">ﾅ</tspan></text></g><g><animateTransform attributeName="transform" type="translate" values="208,-360;208,340" dur="4.36s" begin="-3.22s" repeatCount="indefinite"/><text font-family="Consolas, Menlo, monospace" font-size="18" text-anchor="middle"><tspan x="0" y="20" fill="#00ff41" opacity="0.01">ﾉ</tspan><tspan x="0" y="40" fill="#00ff41" opacity="0.03">ﾛ</tspan><tspan x="0" y="60" fill="#00ff41" opacity="0.06">ﾒ</tspan><tspan x="0" y="80" fill="#00ff41" opacity="0.09">=</tspan><tspan x="0" y="100" fill="#00ff41" opacity="0.13">ﾐ</tspan><tspan x="0" y="120" fill="#00ff41" opacity="0.17">ﾍ</tspan><tspan x="0" y="140" fill="#00ff41" opacity="0.22">ｾ</tspan><tspan x="0" y="160" fill="#00ff41" opacity="0.27">5</tspan><tspan x="0" y="180" fill="#00ff41" opacity="0.33">ﾖ</tspan><tspan x="0" y="200" fill="#00ff41" opacity="0.39">.</tspan><tspan x="0" y="220" fill="#00ff41" opacity="0.45">ﾋ</tspan><tspan x="0" y="240" fill="#00ff41" opacity="0.52">></tspan><tspan x="0" y="260" fill="#00ff41" opacity="0.59">8</tspan><tspan x="0" y="280" fill="#00ff41" opacity="0.67">ｴ</tspan><tspan x="0" y="300" fill="#00ff41" opacity="0.75">8</tspan><tspan x="0" y="320" fill="#00ff41" opacity="0.83">4</tspan><tspan x="0" y="340" fill="#00ff41" opacity="0.91">6</tspan><tspan x="0" y="360" fill="#d6ffd6" opacity="1.00" filter="url(#glow)">ﾙ</tspan></text></g><g><animateTransform attributeName="transform" type="translate" values="240,-360;240,340" dur="4.48s" begin="-4.21s" repeatCount="indefinite"/><text font-family="Consolas, Menlo, monospace" font-size="18" text-anchor="middle"><tspan x="0" y="20" fill="#00ff41" opacity="0.01">ﾜ</tspan><tspan x="0" y="40" fill="#00ff41" opacity="0.03">ﾛ</tspan><tspan x="0" y="60" fill="#00ff41" opacity="0.06">ﾋ</tspan><tspan x="0" y="80" fill="#00ff41" opacity="0.09">ｴ</tspan><tspan x="0" y="100" fill="#00ff41" opacity="0.13">:</tspan><tspan x="0" y="120" fill="#00ff41" opacity="0.17">ﾕ</tspan><tspan x="0" y="140" fill="#00ff41" opacity="0.22">ﾓ</tspan><tspan x="0" y="160" fill="#00ff41" opacity="0.27">ｻ</tspan><tspan x="0" y="180" fill="#00ff41" opacity="0.33">.</tspan><tspan x="0" y="200" fill="#00ff41" opacity="0.39">ﾕ</tspan><tspan x="0" y="220" fill="#00ff41" opacity="0.45">4</tspan><tspan x="0" y="240" fill="#00ff41" opacity="0.52">ﾃ</tspan><tspan x="0" y="260" fill="#00ff41" opacity="0.59">ﾘ</tspan><tspan x="0" y="280" fill="#00ff41" opacity="0.67">:</tspan><tspan x="0" y="300" fill="#00ff41" opacity="0.75">ﾝ</tspan><tspan x="0" y="320" fill="#00ff41" opacity="0.83">ﾅ</tspan><tspan x="0" y="340" fill="#00ff41" opacity="0.91">ｷ</tspan><tspan x="0" y="360" fill="#d6ffd6" opacity="1.00" filter="url(#glow)">ｽ</tspan></text></g><g><animateTransform attributeName="transform" type="translate" values="272,-360;272,340" dur="9.81s" begin="-3.61s" repeatCount="indefinite"/><text font-family="Consolas, Menlo, monospace" font-size="18" text-anchor="middle"><tspan x="0" y="20" fill="#00ff41" opacity="0.01">ﾈ</tspan><tspan x="0" y="40" fill="#00ff41" opacity="0.03">ｾ</tspan><tspan x="0" y="60" fill="#00ff41" opacity="0.06">ﾅ</tspan><tspan x="0" y="80" fill="#00ff41" opacity="0.09">8</tspan><tspan x="0" y="100" fill="#00ff41" opacity="0.13">=</tspan><tspan x="0" y="120" fill="#00ff41" opacity="0.17">></tspan><tspan x="0" y="140" fill="#00ff41" opacity="0.22">ﾂ</tspan><tspan x="0" y="160" fill="#00ff41" opacity="0.27">2</tspan><tspan x="0" y="180" fill="#00ff41" opacity="0.33">Z</tspan><tspan x="0" y="200" fill="#00ff41" opacity="0.39">ﾄ</tspan><tspan x="0" y="220" fill="#00ff41" opacity="0.45">ﾆ</tspan><tspan x="0" y="240" fill="#00ff41" opacity="0.52">ﾇ</tspan><tspan x="0" y="260" fill="#00ff41" opacity="0.59">ﾍ</tspan><tspan x="0" y="280" fill="#00ff41" opacity="0.67">ｳ</tspan><tspan x="0" y="300" fill="#00ff41" opacity="0.75">ﾇ</tspan><tspan x="0" y="320" fill="#00ff41" opacity="0.83">ﾂ</tspan><tspan x="0" y="340" fill="#00ff41" opacity="0.91">ﾏ</tspan><tspan x="0" y="360" fill="#d6ffd6" opacity="1.00" filter="url(#glow)">6</tspan></text></g><g><animateTransform attributeName="transform" type="translate" values="304,-360;304,340" dur="10.07s" begin="-3.79s" repeatCount="indefinite"/><text font-family="Consolas, Menlo, monospace" font-size="18" text-anchor="middle"><tspan x="0" y="20" fill="#00ff41" opacity="0.01">0</tspan><tspan x="0" y="40" fill="#00ff41" opacity="0.03">ｽ</tspan><tspan x="0" y="60" fill="#00ff41" opacity="0.06">ﾘ</tspan><tspan x="0" y="80" fill="#00ff41" opacity="0.09">ﾏ</tspan><tspan x="0" y="100" fill="#00ff41" opacity="0.13">ﾃ</tspan><tspan x="0" y="120" fill="#00ff41" opacity="0.17">ﾈ</tspan><tspan x="0" y="140" fill="#00ff41" opacity="0.22">ﾌ</tspan><tspan x="0" y="160" fill="#00ff41" opacity="0.27">ﾙ</tspan><tspan x="0" y="180" fill="#00ff41" opacity="0.33">8</tspan><tspan x="0" y="200" fill="#00ff41" opacity="0.39">2</tspan><tspan x="0" y="220" fill="#00ff41" opacity="0.45"><</tspan><tspan x="0" y="240" fill="#00ff41" opacity="0.52">ﾔ</tspan><tspan x="0" y="260" fill="#00ff41" opacity="0.59">ﾖ</tspan><tspan x="0" y="280" fill="#00ff41" opacity="0.67">=</tspan><tspan x="0" y="300" fill="#00ff41" opacity="0.75">ｷ</tspan><tspan x="0" y="320" fill="#00ff41" opacity="0.83">-</tspan><tspan x="0" y="340" fill="#00ff41" opacity="0.91">ﾇ</tspan><tspan x="0" y="360" fill="#d6ffd6" opacity="1.00" filter="url(#glow)">*</tspan></text></g><g><animateTransform attributeName="transform" type="translate" values="336,-360;336,340" dur="10.00s" begin="-2.76s" repeatCount="indefinite"/><text font-family="Consolas, Menlo, monospace" font-size="18" text-anchor="middle"><tspan x="0" y="20" fill="#00ff41" opacity="0.01">3</tspan><tspan x="0" y="40" fill="#00ff41" opacity="0.03">ﾕ</tspan><tspan x="0" y="60" fill="#00ff41" opacity="0.06">ﾍ</tspan><tspan x="0" y="80" fill="#00ff41" opacity="0.09">ﾂ</tspan><tspan x="0" y="100" fill="#00ff41" opacity="0.13">ﾔ</tspan><tspan x="0" y="120" fill="#00ff41" opacity="0.17">ﾋ</tspan><tspan x="0" y="140" fill="#00ff41" opacity="0.22">ﾎ</tspan><tspan x="0" y="160" fill="#00ff41" opacity="0.27">7</tspan><tspan x="0" y="180" fill="#00ff41" opacity="0.33"><</tspan><tspan x="0" y="200" fill="#00ff41" opacity="0.39">ﾂ</tspan><tspan x="0" y="220" fill="#00ff41" opacity="0.45">ｷ</tspan><tspan x="0" y="240" fill="#00ff41" opacity="0.52">ﾓ</tspan><tspan x="0" y="260" fill="#00ff41" opacity="0.59">ﾁ</tspan><tspan x="0" y="280" fill="#00ff41" opacity="0.67">6</tspan><tspan x="0" y="300" fill="#00ff41" opacity="0.75">ﾃ</tspan><tspan x="0" y="320" fill="#00ff41" opacity="0.83">ﾈ</tspan><tspan x="0" y="340" fill="#00ff41" opacity="0.91">ｸ</tspan><tspan x="0" y="360" fill="#d6ffd6" opacity="1.00" filter="url(#glow)">ﾀ</tspan></text></g><g><animateTransform attributeName="transform" type="translate" values="368,-360;368,340" dur="7.04s" begin="-0.13s" repeatCount="indefinite"/><text font-family="Consolas, Menlo, monospace" font-size="18" text-anchor="middle"><tspan x="0" y="20" fill="#00ff41" opacity="0.01"><</tspan><tspan x="0" y="40" fill="#00ff41" opacity="0.03">ﾍ</tspan><tspan x="0" y="60" fill="#00ff41" opacity="0.06">ﾘ</tspan><tspan x="0" y="80" fill="#00ff41" opacity="0.09">ﾏ</tspan><tspan x="0" y="100" fill="#00ff41" opacity="0.13">ﾀ</tspan><tspan x="0" y="120" fill="#00ff41" opacity="0.17">ｴ</tspan><tspan x="0" y="140" fill="#00ff41" opacity="0.22">ﾄ</tspan><tspan x="0" y="160" fill="#00ff41" opacity="0.27">ﾅ</tspan><tspan x="0" y="180" fill="#00ff41" opacity="0.33">1</tspan><tspan x="0" y="200" fill="#00ff41" opacity="0.39">ﾘ</tspan><tspan x="0" y="220" fill="#00ff41" opacity="0.45">ﾉ</tspan><tspan x="0" y="240" fill="#00ff41" opacity="0.52">:</tspan><tspan x="0" y="260" fill="#00ff41" opacity="0.59">7</tspan><tspan x="0" y="280" fill="#00ff41" opacity="0.67">ﾃ</tspan><tspan x="0" y="300" fill="#00ff41" opacity="0.75">ｹ</tspan><tspan x="0" y="320" fill="#00ff41" opacity="0.83">ﾄ</tspan><tspan x="0" y="340" fill="#00ff41" opacity="0.91">ｾ</tspan><tspan x="0" y="360" fill="#d6ffd6" opacity="1.00" filter="url(#glow)">:</tspan></text></g><g><animateTransform attributeName="transform" type="translate" values="400,-360;400,340" dur="7.67s" begin="-5.34s" repeatCount="indefinite"/><text font-family="Consolas, Menlo, monospace" font-size="18" text-anchor="middle"><tspan x="0" y="20" fill="#00ff41" opacity="0.01">ｶ</tspan><tspan x="0" y="40" fill="#00ff41" opacity="0.03">ｼ</tspan><tspan x="0" y="60" fill="#00ff41" opacity="0.06">ﾃ</tspan><tspan x="0" y="80" fill="#00ff41" opacity="0.09">ﾅ</tspan><tspan x="0" y="100" fill="#00ff41" opacity="0.13">ﾀ</tspan><tspan x="0" y="120" fill="#00ff41" opacity="0.17">ﾒ</tspan><tspan x="0" y="140" fill="#00ff41" opacity="0.22">ｸ</tspan><tspan x="0" y="160" fill="#00ff41" opacity="0.27">ﾂ</tspan><tspan x="0" y="180" fill="#00ff41" opacity="0.33">0</tspan><tspan x="0" y="200" fill="#00ff41" opacity="0.39">ｵ</tspan><tspan x="0" y="220" fill="#00ff41" opacity="0.45">ﾅ</tspan><tspan x="0" y="240" fill="#00ff41" opacity="0.52">ﾐ</tspan><tspan x="0" y="260" fill="#00ff41" opacity="0.59">5</tspan><tspan x="0" y="280" fill="#00ff41" opacity="0.67">1</tspan><tspan x="0" y="300" fill="#00ff41" opacity="0.75"><</tspan><tspan x="0" y="320" fill="#00ff41" opacity="0.83">.</tspan><tspan x="0" y="340" fill="#00ff41" opacity="0.91">ﾂ</tspan><tspan x="0" y="360" fill="#d6ffd6" opacity="1.00" filter="url(#glow)">ﾆ</tspan></text></g><g><animateTransform attributeName="transform" type="translate" values="432,-360;432,340" dur="9.06s" begin="-4.18s" repeatCount="indefinite"/><text font-family="Consolas, Menlo, monospace" font-size="18" text-anchor="middle"><tspan x="0" y="20" fill="#00ff41" opacity="0.01">9</tspan><tspan x="0" y="40" fill="#00ff41" opacity="0.03">ﾅ</tspan><tspan x="0" y="60" fill="#00ff41" opacity="0.06">ﾜ</tspan><tspan x="0" y="80" fill="#00ff41" opacity="0.09">=</tspan><tspan x="0" y="100" fill="#00ff41" opacity="0.13">ﾐ</tspan><tspan x="0" y="120" fill="#00ff41" opacity="0.17">ﾚ</tspan><tspan x="0" y="140" fill="#00ff41" opacity="0.22">ｶ</tspan><tspan x="0" y="160" fill="#00ff41" opacity="0.27">ﾓ</tspan><tspan x="0" y="180" fill="#00ff41" opacity="0.33">+</tspan><tspan x="0" y="200" fill="#00ff41" opacity="0.39"><</tspan><tspan x="0" y="220" fill="#00ff41" opacity="0.45">*</tspan><tspan x="0" y="240" fill="#00ff41" opacity="0.52">8</tspan><tspan x="0" y="260" fill="#00ff41" opacity="0.59">ﾚ</tspan><tspan x="0" y="280" fill="#00ff41" opacity="0.67">ﾃ</tspan><tspan x="0" y="300" fill="#00ff41" opacity="0.75">ｹ</tspan><tspan x="0" y="320" fill="#00ff41" opacity="0.83">Z</tspan><tspan x="0" y="340" fill="#00ff41" opacity="0.91">ﾅ</tspan><tspan x="0" y="360" fill="#d6ffd6" opacity="1.00" filter="url(#glow)">ﾖ</tspan></text></g><g><animateTransform attributeName="transform" type="translate" values="464,-360;464,340" dur="8.64s" begin="-7.14s" repeatCount="indefinite"/><text font-family="Consolas, Menlo, monospace" font-size="18" text-anchor="middle"><tspan x="0" y="20" fill="#00ff41" opacity="0.01">+</tspan><tspan x="0" y="40" fill="#00ff41" opacity="0.03">ｴ</tspan><tspan x="0" y="60" fill="#00ff41" opacity="0.06">ﾃ</tspan><tspan x="0" y="80" fill="#00ff41" opacity="0.09">ｿ</tspan><tspan x="0" y="100" fill="#00ff41" opacity="0.13">ﾌ</tspan><tspan x="0" y="120" fill="#00ff41" opacity="0.17">ｽ</tspan><tspan x="0" y="140" fill="#00ff41" opacity="0.22">9</tspan><tspan x="0" y="160" fill="#00ff41" opacity="0.27">ﾇ</tspan><tspan x="0" y="180" fill="#00ff41" opacity="0.33">4</tspan><tspan x="0" y="200" fill="#00ff41" opacity="0.39">ｺ</tspan><tspan x="0" y="220" fill="#00ff41" opacity="0.45">ﾃ</tspan><tspan x="0" y="240" fill="#00ff41" opacity="0.52">7</tspan><tspan x="0" y="260" fill="#00ff41" opacity="0.59">ｺ</tspan><tspan x="0" y="280" fill="#00ff41" opacity="0.67">:</tspan><tspan x="0" y="300" fill="#00ff41" opacity="0.75">ｳ</tspan><tspan x="0" y="320" fill="#00ff41" opacity="0.83">ｾ</tspan><tspan x="0" y="340" fill="#00ff41" opacity="0.91">ﾋ</tspan><tspan x="0" y="360" fill="#d6ffd6" opacity="1.00" filter="url(#glow)">-</tspan></text></g><g><animateTransform attributeName="transform" type="translate" values="496,-360;496,340" dur="4.18s" begin="-1.45s" repeatCount="indefinite"/><text font-family="Consolas, Menlo, monospace" font-size="18" text-anchor="middle"><tspan x="0" y="20" fill="#00ff41" opacity="0.01">ｵ</tspan><tspan x="0" y="40" fill="#00ff41" opacity="0.03">></tspan><tspan x="0" y="60" fill="#00ff41" opacity="0.06">ｶ</tspan><tspan x="0" y="80" fill="#00ff41" opacity="0.09">ｳ</tspan><tspan x="0" y="100" fill="#00ff41" opacity="0.13">ﾉ</tspan><tspan x="0" y="120" fill="#00ff41" opacity="0.17">ｻ</tspan><tspan x="0" y="140" fill="#00ff41" opacity="0.22">ｿ</tspan><tspan x="0" y="160" fill="#00ff41" opacity="0.27">ﾋ</tspan><tspan x="0" y="180" fill="#00ff41" opacity="0.33">ｶ</tspan><tspan x="0" y="200" fill="#00ff41" opacity="0.39">ﾌ</tspan><tspan x="0" y="220" fill="#00ff41" opacity="0.45">ｿ</tspan><tspan x="0" y="240" fill="#00ff41" opacity="0.52">ｹ</tspan><tspan x="0" y="260" fill="#00ff41" opacity="0.59">ﾉ</tspan><tspan x="0" y="280" fill="#00ff41" opacity="0.67">=</tspan><tspan x="0" y="300" fill="#00ff41" opacity="0.75">ﾝ</tspan><tspan x="0" y="320" fill="#00ff41" opacity="0.83">ｾ</tspan><tspan x="0" y="340" fill="#00ff41" opacity="0.91">ｸ</tspan><tspan x="0" y="360" fill="#d6ffd6" opacity="1.00" filter="url(#glow)">ﾇ</tspan></text></g><g><animateTransform attributeName="transform" type="translate" values="528,-360;528,340" dur="7.99s" begin="-5.57s" repeatCount="indefinite"/><text font-family="Consolas, Menlo, monospace" font-size="18" text-anchor="middle"><tspan x="0" y="20" fill="#00ff41" opacity="0.01">ｾ</tspan><tspan x="0" y="40" fill="#00ff41" opacity="0.03">1</tspan><tspan x="0" y="60" fill="#00ff41" opacity="0.06">ｾ</tspan><tspan x="0" y="80" fill="#00ff41" opacity="0.09"><</tspan><tspan x="0" y="100" fill="#00ff41" opacity="0.13">ﾔ</tspan><tspan x="0" y="120" fill="#00ff41" opacity="0.17">ﾜ</tspan><tspan x="0" y="140" fill="#00ff41" opacity="0.22">:</tspan><tspan x="0" y="160" fill="#00ff41" opacity="0.27">ｵ</tspan><tspan x="0" y="180" fill="#00ff41" opacity="0.33">*</tspan><tspan x="0" y="200" fill="#00ff41" opacity="0.39">ｻ</tspan><tspan x="0" y="220" fill="#00ff41" opacity="0.45">ﾒ</tspan><tspan x="0" y="240" fill="#00ff41" opacity="0.52">ｸ</tspan><tspan x="0" y="260" fill="#00ff41" opacity="0.59">4</tspan><tspan x="0" y="280" fill="#00ff41" opacity="0.67">ｼ</tspan><tspan x="0" y="300" fill="#00ff41" opacity="0.75">ｻ</tspan><tspan x="0" y="320" fill="#00ff41" opacity="0.83">8</tspan><tspan x="0" y="340" fill="#00ff41" opacity="0.91">0</tspan><tspan x="0" y="360" fill="#d6ffd6" opacity="1.00" filter="url(#glow)">ﾉ</tspan></text></g><g><animateTransform attributeName="transform" type="translate" values="560,-360;560,340" dur="4.34s" begin="-4.30s" repeatCount="indefinite"/><text font-family="Consolas, Menlo, monospace" font-size="18" text-anchor="middle"><tspan x="0" y="20" fill="#00ff41" opacity="0.01">ｵ</tspan><tspan x="0" y="40" fill="#00ff41" opacity="0.03">ﾆ</tspan><tspan x="0" y="60" fill="#00ff41" opacity="0.06">0</tspan><tspan x="0" y="80" fill="#00ff41" opacity="0.09">ﾃ</tspan><tspan x="0" y="100" fill="#00ff41" opacity="0.13">-</tspan><tspan x="0" y="120" fill="#00ff41" opacity="0.17">ﾄ</tspan><tspan x="0" y="140" fill="#00ff41" opacity="0.22">ﾘ</tspan><tspan x="0" y="160" fill="#00ff41" opacity="0.27">ﾐ</tspan><tspan x="0" y="180" fill="#00ff41" opacity="0.33">ﾋ</tspan><tspan x="0" y="200" fill="#00ff41" opacity="0.39">ﾗ</tspan><tspan x="0" y="220" fill="#00ff41" opacity="0.45">:</tspan><tspan x="0" y="240" fill="#00ff41" opacity="0.52">ﾆ</tspan><tspan x="0" y="260" fill="#00ff41" opacity="0.59">ﾅ</tspan><tspan x="0" y="280" fill="#00ff41" opacity="0.67">1</tspan><tspan x="0" y="300" fill="#00ff41" opacity="0.75">ﾆ</tspan><tspan x="0" y="320" fill="#00ff41" opacity="0.83">ﾁ</tspan><tspan x="0" y="340" fill="#00ff41" opacity="0.91">ﾑ</tspan><tspan x="0" y="360" fill="#d6ffd6" opacity="1.00" filter="url(#glow)">8</tspan></text></g><g><animateTransform attributeName="transform" type="translate" values="592,-360;592,340" dur="8.72s" begin="-8.46s" repeatCount="indefinite"/><text font-family="Consolas, Menlo, monospace" font-size="18" text-anchor="middle"><tspan x="0" y="20" fill="#00ff41" opacity="0.01">ｻ</tspan><tspan x="0" y="40" fill="#00ff41" opacity="0.03">ﾑ</tspan><tspan x="0" y="60" fill="#00ff41" opacity="0.06">ﾜ</tspan><tspan x="0" y="80" fill="#00ff41" opacity="0.09">ﾖ</tspan><tspan x="0" y="100" fill="#00ff41" opacity="0.13">ﾆ</tspan><tspan x="0" y="120" fill="#00ff41" opacity="0.17">ﾐ</tspan><tspan x="0" y="140" fill="#00ff41" opacity="0.22">ﾑ</tspan><tspan x="0" y="160" fill="#00ff41" opacity="0.27">ｳ</tspan><tspan x="0" y="180" fill="#00ff41" opacity="0.33">ﾜ</tspan><tspan x="0" y="200" fill="#00ff41" opacity="0.39">ﾛ</tspan><tspan x="0" y="220" fill="#00ff41" opacity="0.45">+</tspan><tspan x="0" y="240" fill="#00ff41" opacity="0.52">*</tspan><tspan x="0" y="260" fill="#00ff41" opacity="0.59">ﾄ</tspan><tspan x="0" y="280" fill="#00ff41" opacity="0.67">ﾌ</tspan><tspan x="0" y="300" fill="#00ff41" opacity="0.75">ﾐ</tspan><tspan x="0" y="320" fill="#00ff41" opacity="0.83">Z</tspan><tspan x="0" y="340" fill="#00ff41" opacity="0.91">ﾁ</tspan><tspan x="0" y="360" fill="#d6ffd6" opacity="1.00" filter="url(#glow)">ｹ</tspan></text></g><g><animateTransform attributeName="transform" type="translate" values="624,-360;624,340" dur="4.24s" begin="-2.20s" repeatCount="indefinite"/><text font-family="Consolas, Menlo, monospace" font-size="18" text-anchor="middle"><tspan x="0" y="20" fill="#00ff41" opacity="0.01">7</tspan><tspan x="0" y="40" fill="#00ff41" opacity="0.03">></tspan><tspan x="0" y="60" fill="#00ff41" opacity="0.06">Z</tspan><tspan x="0" y="80" fill="#00ff41" opacity="0.09">-</tspan><tspan x="0" y="100" fill="#00ff41" opacity="0.13">2</tspan><tspan x="0" y="120" fill="#00ff41" opacity="0.17">ｱ</tspan><tspan x="0" y="140" fill="#00ff41" opacity="0.22">ﾊ</tspan><tspan x="0" y="160" fill="#00ff41" opacity="0.27">ﾓ</tspan><tspan x="0" y="180" fill="#00ff41" opacity="0.33">ﾁ</tspan><tspan x="0" y="200" fill="#00ff41" opacity="0.39">ﾀ</tspan><tspan x="0" y="220" fill="#00ff41" opacity="0.45">:</tspan><tspan x="0" y="240" fill="#00ff41" opacity="0.52">ｸ</tspan><tspan x="0" y="260" fill="#00ff41" opacity="0.59">2</tspan><tspan x="0" y="280" fill="#00ff41" opacity="0.67">ｲ</tspan><tspan x="0" y="300" fill="#00ff41" opacity="0.75">ﾍ</tspan><tspan x="0" y="320" fill="#00ff41" opacity="0.83">ﾜ</tspan><tspan x="0" y="340" fill="#00ff41" opacity="0.91">ｳ</tspan><tspan x="0" y="360" fill="#d6ffd6" opacity="1.00" filter="url(#glow)">-</tspan></text></g><g><animateTransform attributeName="transform" type="translate" values="656,-360;656,340" dur="6.32s" begin="-4.35s" repeatCount="indefinite"/><text font-family="Consolas, Menlo, monospace" font-size="18" text-anchor="middle"><tspan x="0" y="20" fill="#00ff41" opacity="0.01">ﾗ</tspan><tspan x="0" y="40" fill="#00ff41" opacity="0.03">ﾄ</tspan><tspan x="0" y="60" fill="#00ff41" opacity="0.06">:</tspan><tspan x="0" y="80" fill="#00ff41" opacity="0.09">ｸ</tspan><tspan x="0" y="100" fill="#00ff41" opacity="0.13">ﾝ</tspan><tspan x="0" y="120" fill="#00ff41" opacity="0.17">-</tspan><tspan x="0" y="140" fill="#00ff41" opacity="0.22">ｵ</tspan><tspan x="0" y="160" fill="#00ff41" opacity="0.27">ﾕ</tspan><tspan x="0" y="180" fill="#00ff41" opacity="0.33">:</tspan><tspan x="0" y="200" fill="#00ff41" opacity="0.39">ﾌ</tspan><tspan x="0" y="220" fill="#00ff41" opacity="0.45">ｶ</tspan><tspan x="0" y="240" fill="#00ff41" opacity="0.52">ﾘ</tspan><tspan x="0" y="260" fill="#00ff41" opacity="0.59">0</tspan><tspan x="0" y="280" fill="#00ff41" opacity="0.67">:</tspan><tspan x="0" y="300" fill="#00ff41" opacity="0.75">5</tspan><tspan x="0" y="320" fill="#00ff41" opacity="0.83">4</tspan><tspan x="0" y="340" fill="#00ff41" opacity="0.91">ﾄ</tspan><tspan x="0" y="360" fill="#d6ffd6" opacity="1.00" filter="url(#glow)">ﾔ</tspan></text></g><g><animateTransform attributeName="transform" type="translate" values="688,-360;688,340" dur="9.36s" begin="-1.30s" repeatCount="indefinite"/><text font-family="Consolas, Menlo, monospace" font-size="18" text-anchor="middle"><tspan x="0" y="20" fill="#00ff41" opacity="0.01">3</tspan><tspan x="0" y="40" fill="#00ff41" opacity="0.03">></tspan><tspan x="0" y="60" fill="#00ff41" opacity="0.06">ﾓ</tspan><tspan x="0" y="80" fill="#00ff41" opacity="0.09">Z</tspan><tspan x="0" y="100" fill="#00ff41" opacity="0.13">ｻ</tspan><tspan x="0" y="120" fill="#00ff41" opacity="0.17">ﾙ</tspan><tspan x="0" y="140" fill="#00ff41" opacity="0.22">ﾗ</tspan><tspan x="0" y="160" fill="#00ff41" opacity="0.27">ﾀ</tspan><tspan x="0" y="180" fill="#00ff41" opacity="0.33">ﾐ</tspan><tspan x="0" y="200" fill="#00ff41" opacity="0.39">ｱ</tspan><tspan x="0" y="220" fill="#00ff41" opacity="0.45">ｸ</tspan><tspan x="0" y="240" fill="#00ff41" opacity="0.52">ﾘ</tspan><tspan x="0" y="260" fill="#00ff41" opacity="0.59">ﾈ</tspan><tspan x="0" y="280" fill="#00ff41" opacity="0.67">1</tspan><tspan x="0" y="300" fill="#00ff41" opacity="0.75">+</tspan><tspan x="0" y="320" fill="#00ff41" opacity="0.83">ﾄ</tspan><tspan x="0" y="340" fill="#00ff41" opacity="0.91">ﾕ</tspan><tspan x="0" y="360" fill="#d6ffd6" opacity="1.00" filter="url(#glow)">ｴ</tspan></text></g><g><animateTransform attributeName="transform" type="translate" values="720,-360;720,340" dur="10.90s" begin="-2.34s" repeatCount="indefinite"/><text font-family="Consolas, Menlo, monospace" font-size="18" text-anchor="middle"><tspan x="0" y="20" fill="#00ff41" opacity="0.01">ﾅ</tspan><tspan x="0" y="40" fill="#00ff41" opacity="0.03">ｿ</tspan><tspan x="0" y="60" fill="#00ff41" opacity="0.06">ﾑ</tspan><tspan x="0" y="80" fill="#00ff41" opacity="0.09">ﾑ</tspan><tspan x="0" y="100" fill="#00ff41" opacity="0.13">ﾅ</tspan><tspan x="0" y="120" fill="#00ff41" opacity="0.17">ﾔ</tspan><tspan x="0" y="140" fill="#00ff41" opacity="0.22">ｱ</tspan><tspan x="0" y="160" fill="#00ff41" opacity="0.27">ｴ</tspan><tspan x="0" y="180" fill="#00ff41" opacity="0.33">ｵ</tspan><tspan x="0" y="200" fill="#00ff41" opacity="0.39">ﾗ</tspan><tspan x="0" y="220" fill="#00ff41" opacity="0.45">ﾉ</tspan><tspan x="0" y="240" fill="#00ff41" opacity="0.52">4</tspan><tspan x="0" y="260" fill="#00ff41" opacity="0.59">ｾ</tspan><tspan x="0" y="280" fill="#00ff41" opacity="0.67"><</tspan><tspan x="0" y="300" fill="#00ff41" opacity="0.75">ﾚ</tspan><tspan x="0" y="320" fill="#00ff41" opacity="0.83">ｺ</tspan><tspan x="0" y="340" fill="#00ff41" opacity="0.91">ｴ</tspan><tspan x="0" y="360" fill="#d6ffd6" opacity="1.00" filter="url(#glow)">ﾐ</tspan></text></g><g><animateTransform attributeName="transform" type="translate" values="752,-360;752,340" dur="9.20s" begin="-7.90s" repeatCount="indefinite"/><text font-family="Consolas, Menlo, monospace" font-size="18" text-anchor="middle"><tspan x="0" y="20" fill="#00ff41" opacity="0.01">ﾃ</tspan><tspan x="0" y="40" fill="#00ff41" opacity="0.03">ﾝ</tspan><tspan x="0" y="60" fill="#00ff41" opacity="0.06">ﾁ</tspan><tspan x="0" y="80" fill="#00ff41" opacity="0.09">ﾃ</tspan><tspan x="0" y="100" fill="#00ff41" opacity="0.13">ｽ</tspan><tspan x="0" y="120" fill="#00ff41" opacity="0.17">ﾀ</tspan><tspan x="0" y="140" fill="#00ff41" opacity="0.22">ﾂ</tspan><tspan x="0" y="160" fill="#00ff41" opacity="0.27">1</tspan><tspan x="0" y="180" fill="#00ff41" opacity="0.33">ﾓ</tspan><tspan x="0" y="200" fill="#00ff41" opacity="0.39">ﾛ</tspan><tspan x="0" y="220" fill="#00ff41" opacity="0.45">ﾂ</tspan><tspan x="0" y="240" fill="#00ff41" opacity="0.52">ﾃ</tspan><tspan x="0" y="260" fill="#00ff41" opacity="0.59">-</tspan><tspan x="0" y="280" fill="#00ff41" opacity="0.67">></tspan><tspan x="0" y="300" fill="#00ff41" opacity="0.75">ﾔ</tspan><tspan x="0" y="320" fill="#00ff41" opacity="0.83">ﾑ</tspan><tspan x="0" y="340" fill="#00ff41" opacity="0.91">ｱ</tspan><tspan x="0" y="360" fill="#d6ffd6" opacity="1.00" filter="url(#glow)">ｲ</tspan></text></g><g><animateTransform attributeName="transform" type="translate" values="784,-360;784,340" dur="6.66s" begin="-0.49s" repeatCount="indefinite"/><text font-family="Consolas, Menlo, monospace" font-size="18" text-anchor="middle"><tspan x="0" y="20" fill="#00ff41" opacity="0.01">6</tspan><tspan x="0" y="40" fill="#00ff41" opacity="0.03">ｾ</tspan><tspan x="0" y="60" fill="#00ff41" opacity="0.06">ﾋ</tspan><tspan x="0" y="80" fill="#00ff41" opacity="0.09">2</tspan><tspan x="0" y="100" fill="#00ff41" opacity="0.13">ﾍ</tspan><tspan x="0" y="120" fill="#00ff41" opacity="0.17">ﾈ</tspan><tspan x="0" y="140" fill="#00ff41" opacity="0.22">9</tspan><tspan x="0" y="160" fill="#00ff41" opacity="0.27">3</tspan><tspan x="0" y="180" fill="#00ff41" opacity="0.33">ｱ</tspan><tspan x="0" y="200" fill="#00ff41" opacity="0.39">ｸ</tspan><tspan x="0" y="220" fill="#00ff41" opacity="0.45">ﾀ</tspan><tspan x="0" y="240" fill="#00ff41" opacity="0.52">8</tspan><tspan x="0" y="260" fill="#00ff41" opacity="0.59">ｾ</tspan><tspan x="0" y="280" fill="#00ff41" opacity="0.67">ﾎ</tspan><tspan x="0" y="300" fill="#00ff41" opacity="0.75">ﾚ</tspan><tspan x="0" y="320" fill="#00ff41" opacity="0.83">ﾎ</tspan><tspan x="0" y="340" fill="#00ff41" opacity="0.91">ﾁ</tspan><tspan x="0" y="360" fill="#d6ffd6" opacity="1.00" filter="url(#glow)">ﾔ</tspan></text></g><g><animateTransform attributeName="transform" type="translate" values="816,-360;816,340" dur="8.55s" begin="-5.53s" repeatCount="indefinite"/><text font-family="Consolas, Menlo, monospace" font-size="18" text-anchor="middle"><tspan x="0" y="20" fill="#00ff41" opacity="0.01">ﾉ</tspan><tspan x="0" y="40" fill="#00ff41" opacity="0.03">ﾃ</tspan><tspan x="0" y="60" fill="#00ff41" opacity="0.06"><</tspan><tspan x="0" y="80" fill="#00ff41" opacity="0.09">8</tspan><tspan x="0" y="100" fill="#00ff41" opacity="0.13">ｿ</tspan><tspan x="0" y="120" fill="#00ff41" opacity="0.17">ﾇ</tspan><tspan x="0" y="140" fill="#00ff41" opacity="0.22">:</tspan><tspan x="0" y="160" fill="#00ff41" opacity="0.27">3</tspan><tspan x="0" y="180" fill="#00ff41" opacity="0.33">ｲ</tspan><tspan x="0" y="200" fill="#00ff41" opacity="0.39">ﾛ</tspan><tspan x="0" y="220" fill="#00ff41" opacity="0.45">.</tspan><tspan x="0" y="240" fill="#00ff41" opacity="0.52">ｾ</tspan><tspan x="0" y="260" fill="#00ff41" opacity="0.59">ｽ</tspan><tspan x="0" y="280" fill="#00ff41" opacity="0.67">ﾓ</tspan><tspan x="0" y="300" fill="#00ff41" opacity="0.75">ﾝ</tspan><tspan x="0" y="320" fill="#00ff41" opacity="0.83">2</tspan><tspan x="0" y="340" fill="#00ff41" opacity="0.91">-</tspan><tspan x="0" y="360" fill="#d6ffd6" opacity="1.00" filter="url(#glow)">ｿ</tspan></text></g><g><animateTransform attributeName="transform" type="translate" values="848,-360;848,340" dur="5.24s" begin="-3.21s" repeatCount="indefinite"/><text font-family="Consolas, Menlo, monospace" font-size="18" text-anchor="middle"><tspan x="0" y="20" fill="#00ff41" opacity="0.01">ﾆ</tspan><tspan x="0" y="40" fill="#00ff41" opacity="0.03">ﾂ</tspan><tspan x="0" y="60" fill="#00ff41" opacity="0.06">ﾑ</tspan><tspan x="0" y="80" fill="#00ff41" opacity="0.09">7</tspan><tspan x="0" y="100" fill="#00ff41" opacity="0.13">ﾘ</tspan><tspan x="0" y="120" fill="#00ff41" opacity="0.17">ｾ</tspan><tspan x="0" y="140" fill="#00ff41" opacity="0.22">ﾂ</tspan><tspan x="0" y="160" fill="#00ff41" opacity="0.27">ｷ</tspan><tspan x="0" y="180" fill="#00ff41" opacity="0.33">ﾀ</tspan><tspan x="0" y="200" fill="#00ff41" opacity="0.39">ﾕ</tspan><tspan x="0" y="220" fill="#00ff41" opacity="0.45">ﾁ</tspan><tspan x="0" y="240" fill="#00ff41" opacity="0.52">ﾛ</tspan><tspan x="0" y="260" fill="#00ff41" opacity="0.59">ﾍ</tspan><tspan x="0" y="280" fill="#00ff41" opacity="0.67">ﾊ</tspan><tspan x="0" y="300" fill="#00ff41" opacity="0.75">-</tspan><tspan x="0" y="320" fill="#00ff41" opacity="0.83">ﾙ</tspan><tspan x="0" y="340" fill="#00ff41" opacity="0.91">ﾄ</tspan><tspan x="0" y="360" fill="#d6ffd6" opacity="1.00" filter="url(#glow)">8</tspan></text></g><g><animateTransform attributeName="transform" type="translate" values="880,-360;880,340" dur="5.25s" begin="-2.54s" repeatCount="indefinite"/><text font-family="Consolas, Menlo, monospace" font-size="18" text-anchor="middle"><tspan x="0" y="20" fill="#00ff41" opacity="0.01">8</tspan><tspan x="0" y="40" fill="#00ff41" opacity="0.03">ﾆ</tspan><tspan x="0" y="60" fill="#00ff41" opacity="0.06">ﾝ</tspan><tspan x="0" y="80" fill="#00ff41" opacity="0.09">ﾒ</tspan><tspan x="0" y="100" fill="#00ff41" opacity="0.13">ﾎ</tspan><tspan x="0" y="120" fill="#00ff41" opacity="0.17">ﾆ</tspan><tspan x="0" y="140" fill="#00ff41" opacity="0.22">></tspan><tspan x="0" y="160" fill="#00ff41" opacity="0.27">ﾝ</tspan><tspan x="0" y="180" fill="#00ff41" opacity="0.33">ﾓ</tspan><tspan x="0" y="200" fill="#00ff41" opacity="0.39">ﾛ</tspan><tspan x="0" y="220" fill="#00ff41" opacity="0.45">ﾗ</tspan><tspan x="0" y="240" fill="#00ff41" opacity="0.52">ﾑ</tspan><tspan x="0" y="260" fill="#00ff41" opacity="0.59">*</tspan><tspan x="0" y="280" fill="#00ff41" opacity="0.67">></tspan><tspan x="0" y="300" fill="#00ff41" opacity="0.75">ﾀ</tspan><tspan x="0" y="320" fill="#00ff41" opacity="0.83">ｷ</tspan><tspan x="0" y="340" fill="#00ff41" opacity="0.91">3</tspan><tspan x="0" y="360" fill="#d6ffd6" opacity="1.00" filter="url(#glow)">ﾛ</tspan></text></g><g><animateTransform attributeName="transform" type="translate" values="912,-360;912,340" dur="4.06s" begin="-2.23s" repeatCount="indefinite"/><text font-family="Consolas, Menlo, monospace" font-size="18" text-anchor="middle"><tspan x="0" y="20" fill="#00ff41" opacity="0.01">ｴ</tspan><tspan x="0" y="40" fill="#00ff41" opacity="0.03">0</tspan><tspan x="0" y="60" fill="#00ff41" opacity="0.06">ﾊ</tspan><tspan x="0" y="80" fill="#00ff41" opacity="0.09">ｴ</tspan><tspan x="0" y="100" fill="#00ff41" opacity="0.13">8</tspan><tspan x="0" y="120" fill="#00ff41" opacity="0.17">ﾒ</tspan><tspan x="0" y="140" fill="#00ff41" opacity="0.22">ﾝ</tspan><tspan x="0" y="160" fill="#00ff41" opacity="0.27">ｽ</tspan><tspan x="0" y="180" fill="#00ff41" opacity="0.33">ﾇ</tspan><tspan x="0" y="200" fill="#00ff41" opacity="0.39">ｵ</tspan><tspan x="0" y="220" fill="#00ff41" opacity="0.45">ﾌ</tspan><tspan x="0" y="240" fill="#00ff41" opacity="0.52">ｳ</tspan><tspan x="0" y="260" fill="#00ff41" opacity="0.59">ｺ</tspan><tspan x="0" y="280" fill="#00ff41" opacity="0.67">4</tspan><tspan x="0" y="300" fill="#00ff41" opacity="0.75">ｵ</tspan><tspan x="0" y="320" fill="#00ff41" opacity="0.83">ﾊ</tspan><tspan x="0" y="340" fill="#00ff41" opacity="0.91">ﾃ</tspan><tspan x="0" y="360" fill="#d6ffd6" opacity="1.00" filter="url(#glow)">ﾖ</tspan></text></g><g><animateTransform attributeName="transform" type="translate" values="944,-360;944,340" dur="7.93s" begin="-1.41s" repeatCount="indefinite"/><text font-family="Consolas, Menlo, monospace" font-size="18" text-anchor="middle"><tspan x="0" y="20" fill="#00ff41" opacity="0.01">ｻ</tspan><tspan x="0" y="40" fill="#00ff41" opacity="0.03"><</tspan><tspan x="0" y="60" fill="#00ff41" opacity="0.06">ﾖ</tspan><tspan x="0" y="80" fill="#00ff41" opacity="0.09">ﾝ</tspan><tspan x="0" y="100" fill="#00ff41" opacity="0.13">ｺ</tspan><tspan x="0" y="120" fill="#00ff41" opacity="0.17">ﾃ</tspan><tspan x="0" y="140" fill="#00ff41" opacity="0.22">3</tspan><tspan x="0" y="160" fill="#00ff41" opacity="0.27">ｻ</tspan><tspan x="0" y="180" fill="#00ff41" opacity="0.33">ﾕ</tspan><tspan x="0" y="200" fill="#00ff41" opacity="0.39">:</tspan><tspan x="0" y="220" fill="#00ff41" opacity="0.45">2</tspan><tspan x="0" y="240" fill="#00ff41" opacity="0.52">ﾓ</tspan><tspan x="0" y="260" fill="#00ff41" opacity="0.59">ﾙ</tspan><tspan x="0" y="280" fill="#00ff41" opacity="0.67">:</tspan><tspan x="0" y="300" fill="#00ff41" opacity="0.75">:</tspan><tspan x="0" y="320" fill="#00ff41" opacity="0.83">+</tspan><tspan x="0" y="340" fill="#00ff41" opacity="0.91">ｾ</tspan><tspan x="0" y="360" fill="#d6ffd6" opacity="1.00" filter="url(#glow)">ｲ</tspan></text></g><g><animateTransform attributeName="transform" type="translate" values="976,-360;976,340" dur="10.07s" begin="-7.45s" repeatCount="indefinite"/><text font-family="Consolas, Menlo, monospace" font-size="18" text-anchor="middle"><tspan x="0" y="20" fill="#00ff41" opacity="0.01">ﾉ</tspan><tspan x="0" y="40" fill="#00ff41" opacity="0.03">ｹ</tspan><tspan x="0" y="60" fill="#00ff41" opacity="0.06">ｵ</tspan><tspan x="0" y="80" fill="#00ff41" opacity="0.09">ﾆ</tspan><tspan x="0" y="100" fill="#00ff41" opacity="0.13">></tspan><tspan x="0" y="120" fill="#00ff41" opacity="0.17">ﾂ</tspan><tspan x="0" y="140" fill="#00ff41" opacity="0.22">ｴ</tspan><tspan x="0" y="160" fill="#00ff41" opacity="0.27">ﾔ</tspan><tspan x="0" y="180" fill="#00ff41" opacity="0.33">ﾃ</tspan><tspan x="0" y="200" fill="#00ff41" opacity="0.39">ｶ</tspan><tspan x="0" y="220" fill="#00ff41" opacity="0.45">8</tspan><tspan x="0" y="240" fill="#00ff41" opacity="0.52">ﾀ</tspan><tspan x="0" y="260" fill="#00ff41" opacity="0.59">ｽ</tspan><tspan x="0" y="280" fill="#00ff41" opacity="0.67">ﾘ</tspan><tspan x="0" y="300" fill="#00ff41" opacity="0.75">+</tspan><tspan x="0" y="320" fill="#00ff41" opacity="0.83">:</tspan><tspan x="0" y="340" fill="#00ff41" opacity="0.91">ﾑ</tspan><tspan x="0" y="360" fill="#d6ffd6" opacity="1.00" filter="url(#glow)">9</tspan></text></g><g><animateTransform attributeName="transform" type="translate" values="1008,-360;1008,340" dur="9.34s" begin="-6.67s" repeatCount="indefinite"/><text font-family="Consolas, Menlo, monospace" font-size="18" text-anchor="middle"><tspan x="0" y="20" fill="#00ff41" opacity="0.01">ﾓ</tspan><tspan x="0" y="40" fill="#00ff41" opacity="0.03">ｹ</tspan><tspan x="0" y="60" fill="#00ff41" opacity="0.06">ﾒ</tspan><tspan x="0" y="80" fill="#00ff41" opacity="0.09">></tspan><tspan x="0" y="100" fill="#00ff41" opacity="0.13">ﾝ</tspan><tspan x="0" y="120" fill="#00ff41" opacity="0.17">0</tspan><tspan x="0" y="140" fill="#00ff41" opacity="0.22">ﾕ</tspan><tspan x="0" y="160" fill="#00ff41" opacity="0.27">ｻ</tspan><tspan x="0" y="180" fill="#00ff41" opacity="0.33">1</tspan><tspan x="0" y="200" fill="#00ff41" opacity="0.39">ｺ</tspan><tspan x="0" y="220" fill="#00ff41" opacity="0.45">5</tspan><tspan x="0" y="240" fill="#00ff41" opacity="0.52">0</tspan><tspan x="0" y="260" fill="#00ff41" opacity="0.59">ﾍ</tspan><tspan x="0" y="280" fill="#00ff41" opacity="0.67">ﾖ</tspan><tspan x="0" y="300" fill="#00ff41" opacity="0.75">ﾎ</tspan><tspan x="0" y="320" fill="#00ff41" opacity="0.83">ｷ</tspan><tspan x="0" y="340" fill="#00ff41" opacity="0.91">2</tspan><tspan x="0" y="360" fill="#d6ffd6" opacity="1.00" filter="url(#glow)">ﾍ</tspan></text></g></svg>